<svg xmlns="http://www.w3.org/2000/svg" viewBox="0 0 273.4139 110.6352"><defs><style>.a{fill:#2b2823;}.b{fill:#b14808;}.c{fill:#f8bc56;}.d{fill:#02696e;}.e{fill:#085659;}</style></defs><title>Roam Wild Adventure - Logo</title><path class="a" d="M263.7588,82.1266l-.1155.3234h5.8439l-.1848-.3234a3.231,3.231,0,0,0-5.5436,0ZM259.6242,83.72a6.8992,6.8992,0,0,1,13.79,0,6.7122,6.7122,0,0,1-.1386,1.386l-9.6319.0231a3.1713,3.1713,0,0,0,2.8873,1.7786,3.2107,3.2107,0,0,0,2.2636-.924h4.2039a6.9125,6.9125,0,0,1-6.4675,4.4118,6.7442,6.7442,0,0,1-6.9064-6.583Zm-8.5925-6.6523V90.4419h3.6726l.0462-6.9757a3.1951,3.1951,0,0,1,3.2337-3.1414h.97l.0231-3.5109h-.9932a7.068,7.068,0,0,0-3.2337.7391V77.068Zm-13.72,11.48a6.5588,6.5588,0,0,0,5.0354,1.894,7.92,7.92,0,0,0,3.0952-.5774v.5774h3.7419V77.0449h-4.1115v6.4676c0,1.8016-.7622,2.98-2.7256,2.98-1.9864,0-2.7025-1.2011-2.7025-2.98V77.0449H235.51V83.72A6.7748,6.7748,0,0,0,237.3113,88.5479ZM226.27,80.2325V90.4419h3.7419V86.3766c0-1.4782-.0462-2.98-.0462-4.4579V80.2325l3.6957-.0462V77.0219l-3.6957.0231V72.3791h-3.6726V77.068h-3.6957v3.1645Zm-18.0166-3.049c0,4.3425-.0231,8.6849-.0231,13.0505v.2079h3.7419V83.6049a3.2214,3.2214,0,0,1,3.2337-3.1182,3.274,3.274,0,0,1,3.2338,2.8872c.0231.231,0,.4851,0,.7161l.0231,1.6862v4.62l3.7419.0462V83.4893a6.4936,6.4936,0,0,0-2.0789-4.5273,6.855,6.855,0,0,0-4.92-1.9864,7.2794,7.2794,0,0,0-3.28.7622v-.6929h-3.6726Zm-11.526,4.943-.1155.3234h5.8439l-.1848-.3234a3.2311,3.2311,0,0,0-5.5436,0ZM192.5931,83.72a6.8992,6.8992,0,0,1,13.79,0,6.7147,6.7147,0,0,1-.1386,1.386l-9.632.0231A3.1713,3.1713,0,0,0,199.5,86.9079a3.2107,3.2107,0,0,0,2.2636-.924h4.2039A6.9125,6.9125,0,0,1,199.5,90.3957a6.7442,6.7442,0,0,1-6.9064-6.583ZM178.18,77.0912l5.4281,13.3276h3.6033l5.4512-13.3276h-4.1346L185.41,85.36l-3.0951-8.2691Zm-5.8208,8.9159a3.1356,3.1356,0,0,1-2.31.9471,3.2223,3.2223,0,1,1,2.31-5.4974,3.1386,3.1386,0,0,1,.9239,1.871v.8085A3.0771,3.0771,0,0,1,172.3591,86.0071ZM163.0736,83.72a6.8942,6.8942,0,0,0,6.9757,6.7447,7.2846,7.2846,0,0,0,3.2337-.716v.6929h3.7419V90.234c0-2.1712.0231-4.3424.0231-6.5137,0-3.6726-.0231-7.3683-.0231-11.0409v-.231h-3.6726V77.761a7.3048,7.3048,0,0,0-3.303-.7623A6.89,6.89,0,0,0,163.0736,83.72Zm-13.0274-1.0394,3.2107-.0231-1.5938-4.3193Zm-7.9689,7.761,7.2991-18.0166H153.95l7.2759,18.0166H156.19l-1.4552-4.0191h-6.121l-1.5014,4.0191Zm-14.6212-4.4348a3.1357,3.1357,0,0,1-2.31.9471,3.2223,3.2223,0,1,1,2.31-5.4974,3.1387,3.1387,0,0,1,.9239,1.871v.8085A3.0772,3.0772,0,0,1,127.4561,86.0071ZM118.1706,83.72a6.8942,6.8942,0,0,0,6.9757,6.7447,7.2846,7.2846,0,0,0,3.2337-.716v.6929h3.7419V90.234c0-2.1712.0231-4.3424.0231-6.5137,0-3.6726-.0231-7.3683-.0231-11.0409v-.231h-3.6726V77.761a7.3048,7.3048,0,0,0-3.303-.7623A6.89,6.89,0,0,0,118.1706,83.72Zm-5.59,6.7447h3.7419l-.0462-18.0628h-3.6726v.231ZM106.737,77.068V90.4419h3.7419V77.068Zm-.231-2.5639a2.07,2.07,0,0,0,2.1019,2.0557,2.1058,2.1058,0,0,0,2.1251-2.0557,2.16,2.16,0,0,0-2.1251-2.1019A2.1237,2.1237,0,0,0,106.506,74.5041ZM83.1768,90.4419,78.1183,72.4253h4.92l2.91,10.7407,3.3723-10.7407h4.1115l3.3723,10.7176,2.91-10.7176h4.943L99.6,90.4419H94.8183L91.3766,79.9784,87.9581,90.4419ZM62.6655,76.9757c4.3425,0,5.52,2.818,5.52,6.3058v7.16H64.4441l-.0231-7.299c0-1.34-.7623-2.6562-2.0327-2.6562-1.0856,0-2.0326.5543-2.0326,3.1182v6.8371H57.0526V83.166c0-1.1549-1.0394-2.6793-2.2636-2.6793-1.4552,0-2.31,1.8016-2.31,3.1182v6.8371H48.76V90.234l.0231-13.1891h3.6726v.6237a4.2585,4.2585,0,0,1,2.3329-.6929A4.3692,4.3692,0,0,1,58.67,79.17,4.49,4.49,0,0,1,62.6655,76.9757ZM42.2467,85.984a3.22,3.22,0,1,1,.9008-2.8642v1.178A3.278,3.278,0,0,1,42.2467,85.984Zm-9.2855-2.2868a6.8942,6.8942,0,0,0,6.9757,6.7447A7.3056,7.3056,0,0,0,43.24,89.68v.7622h3.6726l-.0231-13.3507H43.1475v.6005a7.2564,7.2564,0,0,0-3.2107-.716A6.89,6.89,0,0,0,32.9612,83.6972Zm-5.5436.0231A3.15,3.15,0,0,1,24.23,86.9079a3.1762,3.1762,0,1,1,0-6.352A3.1449,3.1449,0,0,1,27.4176,83.72Zm-10.0939,0A6.8992,6.8992,0,1,0,24.23,77.068,6.82,6.82,0,0,0,17.3237,83.72ZM4.62,80.9485H7.6917c1.7786,0,2.6563-.8084,2.6563-2.4484a2.3528,2.3528,0,0,0-.6467-1.7093,2.6439,2.6439,0,0,0-2.01-.67H4.62ZM0,90.4419V72.4253H7.9458a7.3635,7.3635,0,0,1,5.2433,1.7324,6.1341,6.1341,0,0,1,0,8.7312,5.8688,5.8688,0,0,1-1.3166.9239l3.6033,6.6292H11.11L7.9458,84.6443H4.62v5.7976Z"/><path class="b" d="M25.31,108.7676H22.4209V100.44H25.333a3.8814,3.8814,0,0,1,2.8193,1.11,4.0886,4.0886,0,0,1,1.14,3.0713,4.0121,4.0121,0,0,1-1.1514,3.0483A3.944,3.944,0,0,1,25.31,108.7676Zm-1.7383-1.022h1.7031a2.7359,2.7359,0,0,0,2.0264-.8105,3.1449,3.1449,0,0,0,.8047-2.314,3.2337,3.2337,0,0,0-.793-2.3374,2.6793,2.6793,0,0,0-2.0146-.8223H23.5712Z"/><path class="b" d="M38.7119,108.7676l-1.9033-3.4062H35.5634v3.4063H34.4013V100.44h3.1357a2.4771,2.4771,0,0,1,1.85.71,2.4211,2.4211,0,0,1,.6992,1.7676,2.32,2.32,0,0,1-.54,1.5449,2.4543,2.4543,0,0,1-1.48.8159l1.9854,3.4888Zm-3.1484-4.44h1.7617a1.6638,1.6638,0,0,0,1.14-.3818,1.2979,1.2979,0,0,0,.4346-1.0278,1.3483,1.3483,0,0,0-.4346-1.0513,1.6327,1.6327,0,0,0-1.14-.3936H35.5634Z"/><path class="b" d="M50.2578,108.7676H45.1962V100.44h5.0615v1.0688H46.3466v2.5605h3.5479V105.15H46.3466v2.5488h3.9111Z"/><path class="b" d="M61.3105,108.7676l-.9043-2.3257H56.7177l-.8809,2.3257H54.6035L57.916,100.44h1.3271l3.3125,8.3276Zm-2.76-7.13-1.4219,3.7354h2.8662Z"/><path class="b" d="M76.2519,108.7676h-1.14v-6.4839l-2.8428,6.4839H71.2128l-2.8193-6.4839v6.4839H67.2548V100.44h1.5615l2.9365,6.7773,2.96-6.7773h1.5391Z"/><path class="b" d="M81.6543,108.0156a.7364.7364,0,0,1,.2471-.5518.8485.8485,0,0,1,.61-.2349.8936.8936,0,0,1,.6758.2935,1.1553,1.1553,0,0,1,.2754.8223,2.2949,2.2949,0,0,1-.54,1.6328,1.9716,1.9716,0,0,1-1.1982.6577v-.6108a1.1485,1.1485,0,0,0,.6934-.4639,1.4057,1.4057,0,0,0,.2813-.8047.4489.4489,0,0,1-.2578.0586.7546.7546,0,0,1-.7871-.7988Z"/><path class="b" d="M95.3271,100.44H98.04a2.6058,2.6058,0,0,1,1.8379.6226,2.1162,2.1162,0,0,1,.6758,1.6323,1.8486,1.8486,0,0,1-.3408,1.1162,1.9278,1.9278,0,0,1-.9043.6812,1.89,1.89,0,0,1,1.0986.7339,2.1171,2.1171,0,0,1,.4043,1.2744,2.0859,2.0859,0,0,1-.7158,1.627,2.6816,2.6816,0,0,1-1.8564.64H95.3271Zm1.15,3.6411h1.4336a1.5272,1.5272,0,0,0,1.08-.37,1.2435,1.2435,0,0,0,.3994-.957,1.188,1.188,0,0,0-.4111-.9517,1.6572,1.6572,0,0,0-1.1152-.3525H96.4775Zm0,3.6763h1.5977a1.6911,1.6911,0,0,0,1.1338-.3643,1.2018,1.2018,0,0,0,.4287-.9629,1.31,1.31,0,0,0-.3877-.9927,1.5739,1.5739,0,0,0-1.1279-.37H96.4775Z"/><path class="b" d="M110.9834,108.7676h-5.0615V100.44h5.0615v1.0688h-3.9111v2.5605H110.62V105.15h-3.5479v2.5488h3.9111Z"/><path class="b" d="M121.3554,108.7676h-5.0859V100.44h1.15v7.2471h3.9355Z"/><path class="b" d="M127.4043,108.7676H126.23V100.44h1.1738Z"/><path class="b" d="M138.1044,108.7676h-5.0615V100.44h5.0615v1.0688h-3.9111v2.5605h3.5479V105.15h-3.5479v2.5488h3.9111Z"/><path class="b" d="M146.1855,107.2876l2.5371-6.8477h1.21l-3.207,8.3276h-1.1387L142.45,100.44h1.2217Z"/><path class="b" d="M159.6933,108.7676h-5.0615V100.44h5.0615v1.0688h-3.9111v2.5605H159.33V105.15h-3.5479v2.5488h3.9111Z"/><path class="b" d="M164.7441,108.0156a.7364.7364,0,0,1,.2471-.5518.8485.8485,0,0,1,.61-.2349.8936.8936,0,0,1,.6758.2935,1.1553,1.1553,0,0,1,.2754.8223,2.2949,2.2949,0,0,1-.54,1.6328,1.9716,1.9716,0,0,1-1.1982.6577v-.6108a1.1485,1.1485,0,0,0,.6934-.4639,1.4057,1.4057,0,0,0,.2813-.8047.4489.4489,0,0,1-.2578.0586.7546.7546,0,0,1-.7871-.7988Z"/><path class="b" d="M184.1835,108.7676l-.9043-2.3257h-3.6885l-.8809,2.3257h-1.2334l3.3125-8.3276h1.3271l3.3125,8.3276Zm-2.76-7.13-1.4219,3.7354h2.8662Z"/><path class="b" d="M193.4394,108.9438a4.0507,4.0507,0,0,1-2.9189-1.1748,4.2035,4.2035,0,0,1-1.2158-3.1714,4.4518,4.4518,0,0,1,.6113-2.3491,3.9439,3.9439,0,0,1,1.5381-1.4976,4.2109,4.2109,0,0,1,1.9854-.4873,3.9153,3.9153,0,0,1,2.3789.71,3.3718,3.3718,0,0,1,1.2861,1.9321l-1.0693.376a2.5231,2.5231,0,0,0-.9043-1.4507,2.7087,2.7087,0,0,0-1.6914-.5107,2.859,2.859,0,0,0-2.0908.8633,3.7946,3.7946,0,0,0,0,4.8335,2.8493,2.8493,0,0,0,2.0908.8691,2.6346,2.6346,0,0,0,1.7031-.5464,2.8475,2.8475,0,0,0,.9512-1.4507l1.0225.376a3.5927,3.5927,0,0,1-1.31,1.9438A3.8062,3.8062,0,0,1,193.4394,108.9438Z"/><path class="b" d="M208.7207,108.7676h-1.1514v-3.7h-4.252v3.7h-1.15V100.44h1.15v3.5586h4.252V100.44h1.1514Z"/><path class="b" d="M215.5332,108.7676h-1.1738V100.44h1.1738Z"/><path class="b" d="M226.2334,108.7676h-5.0615V100.44h5.0615v1.0688h-3.9111v2.5605H225.87V105.15h-3.5479v2.5488h3.9111Z"/><path class="b" d="M234.3154,107.2876l2.5371-6.8477h1.21l-3.207,8.3276h-1.1387L230.58,100.44h1.2217Z"/><path class="b" d="M247.8222,108.7676h-5.0615V100.44h5.0615v1.0688h-3.9111v2.5605h3.5479V105.15h-3.5479v2.5488h3.9111Z"/><path class="c" d="M89.44,41.9375c5.229-2.4131,18.5967-7.6165,18.75-7.6754l.6592-.2531a32.1354,32.1354,0,0,0,9.63-5.0814,70.2815,70.2815,0,0,0,7.495-7.3508,40.2794,40.2794,0,0,1,3.7226-3.759l.0234-.0179.0244-.0172a8.0548,8.0548,0,0,1,3.1431-1.4666c.4977-.137,1.1153-.31,1.9876-.5984A26.4029,26.4029,0,0,0,84.9,20.9425,28.2211,28.2211,0,0,0,89.44,41.9375Z"/><path class="d" d="M102.7026,40.3341a20.9813,20.9813,0,0,0,6.2824-2.2713,26.4805,26.4805,0,0,1,6.0783-3.2222c1.74-.6152,3.7748-1.099,5.1984-2.3421,1.1177-.9759,1.8384-2.3237,2.9434-3.3495,1.9013-1.7649,4.3075-2.9757,6.0332-4.9332,1.2036-1.3652,1.9821-3.2323,3.5308-4.27,2.3722-1.5894,5.6418-.6329,7.9641-2.4447.6448-.503,2.5193-2.0823,3.88-2.0823a1.2543,1.2543,0,0,1,.8589.3023c.6314.5568.1038,1.7824-.0684,2.4368-.2172.8249-.7438,2.0931-.25,2.9128a1.7534,1.7534,0,0,0,1.6188.7233,9.3161,9.3161,0,0,0,2.2378-.3913,5.1594,5.1594,0,0,1,1.27-.1933c3.5762,0-1.5391,6.722-2.124,7.99-1.9223,3.5243,3.6312,2.2426,4.4852,6.5146.2138,1.068.3207,4.0584,1.2816,5.8739a177.0786,177.0786,0,0,1,22.718,5.4227L169.43,35.24l0-.0017a33.5289,33.5289,0,0,1-2.1567-3.4758c-2.1361-4.272-.641-3.4175-2.67-5.2331-1.9223-1.9223-2.5629-1.602-4.058-7.0485s-1.1748-5.2331-2.67-6.4079a1.0343,1.0343,0,0,0-.6389-.2378c-1.1593,0-2.2364,2.21-2.7784,3.6554-.2526.6853-.56.9746-.9022.9746-1.6862,0-4.2271-7.0121-5.2922-8.3436a1.2591,1.2591,0,0,0-.9892-.4576c-2.6826.0009-7.6558,7.05-11.399,8.3606-3.4177,1.1748-3.4177.7475-5.2331,2.0292-1.8157,1.3884-7.0489,7.903-11.2138,11.1069-4.0584,3.0972-6.5148,3.9515-10.68,5.5534-2.6667,1.0256-13.7083,5.38-18.3888,7.5089.0742.098.1554.1956.2313.2933A81.2948,81.2948,0,0,1,102.7026,40.3341Z"/><path class="e" d="M178.3719,49.8343c-1.1349-.3966-2.6829-.9125-4.6076-1.497-2.7915-.8477-6.3666-1.835-10.5907-2.7984-16.58-3.7812-42.6727-7.1808-71.0744-.2188.0722.08.1375.161.211.2411h0c9.0076-1.2107,35.93-3.11,56.4071,13.3024l3.315.4377,34.97,4.6186Z"/></svg>